<svg xmlns="http://www.w3.org/2000/svg" xmlns:xlink="http://www.w3.org/1999/xlink" version="1.1" x="0px" y="0px" viewBox="0 0 100 125"><path d="M600,100 c276,0,500,224,500,500 c0,276,-224,500,-500,500 c-276,0,-500,-224,-500,-500 c0,-276,224,-500,500,-500 Z M600,0 c-332,0,-600,268,-600,600 c0,332,268,600,600,600 c332,0,600,-268,600,-600 c0,-332,-268,-600,-600,-600 Z M355,300 l490,0 c-22,106,-109,200,-245,200 c-136,0,-223,-94,-245,-200 Z M871,891 l70,-70 l-212,-212 l-70,70 Z M941,680 l-71,-71 l-211,211 l71,71 Z M329,891 l212,-212 l-70,-70 l-212,212 Z M259,680 l211,211 l71,-71 l-211,-211 Z M259,680 " fill="#000000" stroke="none" stroke-dasharray="none" stroke-linecap="inherit" stroke-linejoin="inherit" stroke-width="1" transform="matrix(0.05,0.0,0.0,-0.05,20.0,80.0)"/><text x="0" y="115" fill="#000000" font-size="5px" font-weight="bold" font-family="'Helvetica Neue', Helvetica, Arial-Unicode, Arial, Sans-serif">Created by Thomas Helbig</text><text x="0" y="120" fill="#000000" font-size="5px" font-weight="bold" font-family="'Helvetica Neue', Helvetica, Arial-Unicode, Arial, Sans-serif">from the Noun Project</text></svg>